<svg width="201" height="91" viewBox="0 0 201 91" fill="none" xmlns="http://www.w3.org/2000/svg">
<rect width="201" height="91" rx="26" fill="url(#paint0_linear_32_5)"/>
<rect width="201" height="91" rx="26" fill="url(#paint1_linear_32_5)" fill-opacity="0.2"/>
<ellipse cx="52" cy="44" rx="28" ry="29" fill="white"/>
<path d="M55.7375 45C55.7375 47.1558 54.0659 48.9 52 48.9C49.934 48.9 48.2625 47.1558 48.2625 45C48.2625 42.8442 49.934 41.1 52 41.1C54.0659 41.1 55.7375 42.8442 55.7375 45Z" fill="#26C6DA"/>
<path d="M52.0001 49.2C49.7812 49.2 47.9751 47.316 47.9751 45C47.9751 42.684 49.7812 40.8 52.0001 40.8C54.219 40.8 56.0251 42.684 56.0251 45C56.0251 47.316 54.219 49.2 52.0001 49.2ZM52.0001 41.4C50.0974 41.4 48.5501 43.0146 48.5501 45C48.5501 46.9854 50.0974 48.6 52.0001 48.6C53.9028 48.6 55.4501 46.9854 55.4501 45C55.4501 43.0146 53.9028 41.4 52.0001 41.4Z" fill="#55C3C3"/>
<path d="M43.0726 66.3018C42.0888 66.3018 41.193 66.0666 40.4092 65.6034C39.0982 64.8276 38.192 63.4908 37.7148 61.6314C37.1599 59.4672 37.226 56.5926 37.9057 53.3046C32.4248 51.3372 29.2876 48.3186 29.2876 45C29.2876 41.6808 32.4242 38.6628 37.9051 36.696C37.2255 33.4074 37.1588 30.5328 37.7136 28.3686C38.1909 26.5086 39.0971 25.1718 40.4075 24.3966C41.1907 23.9334 42.0871 23.6982 43.0709 23.6982C45.594 23.6982 48.7582 25.3362 52.0012 28.317C55.2442 25.3392 58.4073 23.7024 60.9275 23.7024C61.9114 23.7024 62.8072 23.9376 63.5909 24.4008C64.9002 25.1754 65.807 26.5098 66.2842 28.3674C66.8397 30.531 66.773 33.4062 66.0928 36.6954C71.5748 38.6622 74.7126 41.6808 74.7126 45C74.7126 48.3192 71.5748 51.3378 66.0928 53.3052C66.7724 56.5938 66.8391 59.4684 66.2837 61.632C65.8064 63.4902 64.9008 64.8246 63.5927 65.5992C62.8084 66.0624 61.9119 66.2976 60.9287 66.2976C58.4067 66.2976 55.2425 64.6608 52.0007 61.6842C48.7577 64.6644 45.594 66.3018 43.0726 66.3018ZM40.1189 54.0036C39.549 56.8338 39.4852 59.2518 39.9372 61.011C40.2488 62.2266 40.7887 63.0696 41.5437 63.516C41.9767 63.7722 42.4913 63.9024 43.0726 63.9024C45.0242 63.9024 47.5933 62.5332 50.3297 60.0402C48.9583 58.599 47.6197 56.9676 46.3461 55.1856C44.1433 54.936 42.0503 54.5388 40.1189 54.0036ZM53.671 60.039C56.4069 62.5296 58.9766 63.8976 60.9281 63.8982C61.5094 63.8982 62.0241 63.768 62.4582 63.5118C63.2109 63.0666 63.7496 62.2254 64.0607 61.0116C64.5127 59.2512 64.4494 56.8338 63.8796 54.0042C61.9464 54.5394 59.8529 54.9366 57.6506 55.1862C56.3776 56.9682 55.0407 58.599 53.671 60.039ZM49.4505 55.4358C50.2854 56.5014 51.1399 57.4956 52.0001 58.3998C52.858 57.4962 53.713 56.502 54.5473 55.4358C53.69 55.4784 52.8361 55.5 52.0001 55.5C51.1635 55.5 50.309 55.4784 49.4505 55.4358ZM47.6008 52.9074C49.0354 53.0352 50.5149 53.1 52.0001 53.1C53.4865 53.1 54.9642 53.0352 56.3965 52.908C57.251 51.6576 58.0658 50.3472 58.8196 49.011C59.5487 47.718 60.2347 46.3686 60.8591 44.9994C60.2364 43.6338 59.551 42.285 58.8202 40.989C58.0681 39.6558 57.2533 38.3454 56.3965 37.092C54.9654 36.9648 53.4876 36.9 52.0001 36.9C50.512 36.9 49.0337 36.9648 47.6031 37.0926C46.7463 38.3442 45.9304 39.6546 45.1771 40.9896C44.4469 42.285 43.7615 43.6338 43.1382 45.0012C43.7603 46.3656 44.4457 47.7144 45.1766 49.0116C45.9264 50.3406 46.7411 51.6504 47.6008 52.9074ZM62.0574 47.8674C61.6515 48.675 61.2306 49.467 60.801 50.2278C60.3681 50.997 59.9075 51.7686 59.4291 52.5294C60.7941 52.3098 62.1 52.0284 63.3224 51.6894C62.9832 50.46 62.5582 49.1778 62.0574 47.8674ZM40.6749 51.6888C41.8979 52.0272 43.2032 52.3092 44.5665 52.5288C44.0852 51.7632 43.6246 50.991 43.1945 50.2278C42.7662 49.4676 42.3447 48.6768 41.9393 47.8692C41.4408 49.1736 41.0164 50.4546 40.6749 51.6888ZM63.3943 45C64.2729 47.0346 64.9888 49.0458 65.5264 50.9862C69.7825 49.4238 72.4126 47.1444 72.4126 45C72.4126 42.8556 69.7825 40.5762 65.5264 39.0138C64.9899 40.9542 64.2735 42.9654 63.3943 45ZM38.4715 39.015C34.2171 40.5768 31.5876 42.8562 31.5876 45C31.5876 47.1444 34.2171 49.4238 38.4726 50.9856C39.0097 49.0446 39.7256 47.0334 40.603 45.0012C39.725 42.9684 39.0091 40.9572 38.4715 39.015ZM40.6743 38.3112C41.0159 39.5436 41.4402 40.8252 41.9393 42.132C42.3441 41.3268 42.765 40.5354 43.1951 39.7728C43.6275 39.0054 44.0881 38.2338 44.5682 37.4712C43.2032 37.6902 41.8979 37.9722 40.6743 38.3112ZM59.4302 37.4706C59.9115 38.2368 60.3721 39.0084 60.8022 39.7728C61.2311 40.533 61.6526 41.3244 62.0586 42.132C62.5582 40.8258 62.9826 39.5442 63.3241 38.3106C62.0994 37.9716 60.7941 37.6896 59.4302 37.4706ZM43.0709 26.0982C42.4896 26.0982 41.9755 26.2278 41.5431 26.4846C40.7887 26.931 40.2482 27.774 39.936 28.9896C39.4846 30.7506 39.5479 33.168 40.1183 35.997C42.0503 35.4618 44.1444 35.064 46.3478 34.8144C47.6226 33.0318 48.9612 31.4016 50.3309 29.9616C47.5939 27.4674 45.023 26.0982 43.0709 26.0982ZM57.6512 34.8138C59.8534 35.0634 61.947 35.4606 63.8802 35.9958C64.4506 33.1662 64.5144 30.7482 64.0619 28.9878C63.7502 27.7746 63.2109 26.9334 62.4576 26.4882C62.0241 26.232 61.5094 26.1018 60.9275 26.1018C58.9766 26.1018 56.408 27.4704 53.6716 29.9616C55.0401 31.401 56.3776 33.0318 57.6512 34.8138ZM52.0001 34.5C52.8361 34.5 53.69 34.5216 54.5479 34.5642C53.7142 33.4998 52.8597 32.5062 52.0012 31.6014C51.1405 32.5074 50.2866 33.501 49.4528 34.5642C50.3102 34.5216 51.164 34.5 52.0001 34.5Z" fill="#26C6DA"/>
<path d="M43.0708 23.9982C45.6549 23.9982 48.8185 25.7442 52.0017 28.7184C55.1843 25.7466 58.3463 24.0024 60.928 24.0024C61.8612 24.0024 62.7099 24.2244 63.45 24.6618C64.6897 25.395 65.5499 26.6676 66.0064 28.4454C66.6257 30.7956 66.4958 33.6894 65.7569 36.8934C71.0595 38.742 74.425 41.6586 74.425 45C74.425 48.3414 71.0595 51.258 65.7563 53.1072C66.5274 56.571 66.6567 59.5428 66.0059 61.5546C65.5493 63.3318 64.6897 64.605 63.4511 65.3382C62.7099 65.7762 62.0366 66 61.104 66C61.1034 66 60.8648 66 60.8642 66C58.2813 66 55.182 64.254 52 61.2834C48.8174 64.257 45.6549 66.0018 43.072 66.0018C42.1387 66.0018 41.29 65.7798 40.55 65.3424C39.3092 64.6074 38.4484 63.333 37.9924 61.554C37.3082 59.3238 37.4462 56.3922 38.242 53.1066C32.9399 51.2574 29.575 48.3414 29.575 45C29.575 41.6592 32.9399 38.7426 38.2414 36.8934C37.8464 35.058 37.5939 33.354 37.5853 31.8C37.5784 30.5724 37.7388 29.4306 37.9918 28.446C38.4484 26.6664 39.3086 25.392 40.5494 24.6576C41.2889 24.2196 42.1376 23.9982 43.0708 23.9982ZM39.9009 36.3684C41.9001 35.7954 44.1202 35.3622 46.5036 35.0982C47.8732 33.1722 49.3067 31.4406 50.7505 29.9478C47.9491 27.3402 45.2213 25.7976 43.0708 25.7976C42.4389 25.7976 41.8777 25.9404 41.401 26.223C40.577 26.7108 39.9911 27.615 39.6582 28.9116C39.1648 30.8328 39.277 33.4296 39.9009 36.3684ZM64.0974 36.3678C64.7213 33.429 64.8334 30.8316 64.3401 28.9104C64.0077 27.6162 63.4218 26.7138 62.5995 26.2272C62.1223 25.9446 61.5594 25.8018 60.928 25.8018C58.7792 25.8018 56.0532 27.3426 53.2523 29.9478C54.6956 31.4406 56.1273 33.1722 57.4958 35.0976C59.8781 35.3616 62.0981 35.7948 64.0974 36.3678ZM48.8243 34.8996C49.8604 34.8354 50.8995 34.7796 51.9799 34.7796C53.0603 34.7796 54.139 34.836 55.1751 34.8996C54.1355 33.5322 53.0683 32.283 52.0006 31.1772C50.9328 32.283 49.865 33.5322 48.8243 34.8996ZM52 53.4C53.5876 53.4 55.1073 53.3274 56.5528 53.1948C57.4263 51.9246 58.271 50.5758 59.0667 49.1634C59.8447 47.784 60.5485 46.3878 61.177 45C60.5485 43.6122 59.8447 42.2166 59.0673 40.8378C58.271 39.4248 57.4268 38.0766 56.5528 36.8064C55.1079 36.6726 53.5882 36.6 52 36.6C50.4118 36.6 48.8916 36.6726 47.446 36.8058C46.5714 38.076 45.7262 39.4248 44.9298 40.8372C44.1524 42.2166 43.4486 43.6128 42.8201 45.0006C43.4486 46.3884 44.1518 47.784 44.9292 49.1628C45.7256 50.5752 46.5703 51.924 47.4443 53.1942C48.8904 53.3274 50.4113 53.4 52 53.4ZM62.089 42.8478C62.7358 41.2224 63.2711 39.6264 63.6794 38.1C62.2114 37.6788 60.5899 37.3308 58.8333 37.0758C59.4244 37.992 60 38.9418 60.5537 39.9246C61.1022 40.896 61.6123 41.8728 62.089 42.8478ZM41.9082 42.8484C42.3843 41.8734 42.8949 40.8966 43.4423 39.9246C43.9966 38.9418 44.5727 37.9926 45.1644 37.0764C43.4078 37.3308 41.7863 37.6794 40.3183 38.1006C40.7266 39.627 41.2619 41.2224 41.9082 42.8484ZM65.3331 51.3732C69.9768 49.7316 72.7 47.3196 72.7 45C72.7 42.6804 69.9768 40.2684 65.3331 38.6268C64.7851 40.6698 64.0284 42.8166 63.0791 44.9994C64.0284 47.1828 64.7851 49.3296 65.3331 51.3732ZM38.6657 51.3726C39.2131 49.3302 39.9693 47.1834 40.9186 45.0012C39.9693 42.8184 39.2126 40.671 38.6652 38.628C34.022 40.2696 31.3 42.681 31.3 45C31.3 47.3196 34.0226 49.731 38.6657 51.3726ZM58.8333 52.9242C60.5899 52.6698 62.2114 52.3218 63.6794 51.9C63.2706 50.3736 62.7352 48.7776 62.089 47.1516C61.6123 48.1266 61.1017 49.1034 60.5537 50.0754C60 51.0582 59.4244 52.008 58.8333 52.9242ZM45.1627 52.9236C44.5716 52.0074 43.996 51.0582 43.4417 50.076C42.8943 49.1046 42.3843 48.1284 41.9082 47.154C41.2619 48.7788 40.7271 50.3742 40.3189 51.9C41.7863 52.3206 43.4072 52.6686 45.1627 52.9236ZM43.0725 64.2018C45.2225 64.2018 47.9491 62.6598 50.75 60.0534C49.305 58.56 47.8721 56.8278 46.5019 54.9012C44.1196 54.6378 41.9007 54.2046 39.902 53.6316C39.2787 56.5704 39.1666 59.1672 39.6593 61.0884C39.9917 62.3844 40.5782 63.2886 41.4016 63.7764C41.8777 64.059 42.4406 64.2018 43.0725 64.2018ZM60.928 64.1982C61.5599 64.1982 62.1217 64.0554 62.5995 63.7728C63.4218 63.2862 64.0066 62.3838 64.3383 61.089C64.8317 59.1672 64.7196 56.5704 64.0963 53.6322C62.097 54.2052 59.8775 54.6384 57.4947 54.9018C56.1262 56.8278 54.6939 58.5594 53.2506 60.0528C56.0514 62.6568 58.7781 64.1976 60.928 64.1982ZM52 58.824C53.0678 57.7176 54.135 56.4678 55.1751 55.1004C54.1396 55.1646 53.1287 55.3002 52.0477 55.3002C50.9662 55.3002 49.8587 55.1646 48.8225 55.1004C49.8633 56.4684 50.9317 57.7182 52 58.824ZM42.8667 23.4432C41.8323 23.4432 41.0928 23.646 40.266 24.135C38.8865 24.9516 37.9344 26.3496 37.4364 28.2906C36.8844 30.4428 36.9321 33.2718 37.5721 36.4992C32.1159 38.5134 29 41.595 29 45C29 48.4056 32.1165 51.4866 37.5727 53.5008C36.9327 56.7282 36.885 59.5572 37.4375 61.7094C37.9349 63.6492 38.8865 65.0472 40.2671 65.865C41.0951 66.3546 42.0899 66.5628 43.1237 66.5628C45.7037 66.5628 48.7317 65.0418 52.0006 62.0832C55.2689 65.0388 58.348 66.5976 60.9275 66.5982C61.9619 66.5982 62.906 66.3504 63.734 65.8608C65.1123 65.0454 66.0633 63.6492 66.5607 61.7106C67.1133 59.5578 67.0656 56.7288 66.4256 53.502C71.8829 51.4872 75 48.4056 75 45C75 41.5944 71.8835 38.5128 66.4262 36.4986C67.0667 33.2706 67.1139 30.4416 66.5613 28.2894C66.0633 26.3508 65.1117 24.9546 63.7329 24.1392C62.9054 23.6502 61.9613 23.4018 60.9275 23.4018C58.3486 23.4018 55.27 24.9612 52.0011 27.918C48.7317 24.9588 45.6382 23.4414 43.0576 23.4414L42.8667 23.4432ZM40.339 35.6262C40.0733 34.2318 39.8951 32.925 39.8853 31.779C39.8767 30.747 40.0124 29.8488 40.2131 29.0664C40.5046 27.9312 40.9997 27.15 41.6845 26.7444C42.0732 26.514 42.547 26.358 43.0777 26.358C44.9068 26.358 47.3138 27.6648 49.9104 29.9784C48.6334 31.3422 47.385 32.8698 46.1925 34.5294C44.1311 34.7694 42.1658 35.1372 40.339 35.6262ZM54.0919 29.9796C56.688 27.6678 59.1007 26.4018 60.9275 26.4018C61.4588 26.4018 61.9262 26.5188 62.3155 26.7492C62.9992 27.1536 63.4937 27.933 63.7846 29.0658C64.2872 30.7566 64.2222 33.0042 63.6593 35.6256C61.8325 35.1372 59.8677 34.7688 57.8069 34.53C56.6149 32.871 55.3678 31.3434 54.0919 29.9796ZM50.087 34.236C50.7172 33.456 51.3571 32.718 52.0006 32.0292C52.644 32.718 53.2834 33.456 53.913 34.236C53.2696 34.212 52.6296 34.2 52 34.2C51.3704 34.2 50.731 34.212 50.087 34.236ZM47.7594 37.38C49.1423 37.2606 50.5671 37.1754 52 37.1754C53.4323 37.1754 54.8572 37.2606 56.2395 37.38C57.0629 38.5914 57.8472 39.8556 58.5717 41.1414C59.2743 42.3882 59.9361 43.6848 60.5399 44.9994C59.9356 46.3146 59.2738 47.6118 58.5711 48.8586C57.846 50.145 57.0623 51.4086 56.2389 52.62C54.8572 52.7394 53.4323 52.8996 52 52.8996C50.5665 52.8996 49.1411 52.7388 47.7577 52.6194C46.9337 51.4086 46.1494 50.1444 45.4243 48.858C44.7216 47.6118 44.0604 46.3152 43.4566 45C44.0604 43.6848 44.7222 42.3876 45.4249 41.1408C46.1505 39.855 46.9354 38.5908 47.7594 37.38ZM62.0177 41.4144C61.702 40.8036 61.3783 40.2036 61.0499 39.6204C60.7222 39.039 60.3789 38.4552 60.0235 37.875C61.0436 38.0562 62.0274 38.2728 62.9641 38.523C62.6956 39.4626 62.3787 40.4298 62.0177 41.4144ZM41.0336 38.523C41.9703 38.2728 42.9541 38.0562 43.9741 37.875C43.6182 38.4552 43.275 39.039 42.9472 39.6198C42.6189 40.203 42.2951 40.803 41.9795 41.4138C41.6184 40.4304 41.3021 39.4632 41.0336 38.523ZM63.7099 44.9994C64.5235 43.1022 65.1974 41.2242 65.7166 39.4038C69.6858 40.9152 72.125 43.0326 72.125 45C72.125 46.9674 69.6858 49.0848 65.7166 50.5962C65.1968 48.7752 64.5235 46.8966 63.7099 44.9994ZM38.2816 50.5956C34.3136 49.0842 31.875 46.9668 31.875 45C31.875 43.0332 34.3136 40.9158 38.2811 39.4044C38.8003 41.2254 39.4736 43.1034 40.2872 45.0006C39.4742 46.8972 38.8009 48.7752 38.2816 50.5956ZM60.023 52.1256C60.3783 51.5448 60.7222 50.961 61.0493 50.3802C61.3783 49.797 61.702 49.1964 62.0177 48.5856C62.3787 49.5702 62.695 50.538 62.9641 51.4782C62.0269 51.7272 61.043 51.9444 60.023 52.1256ZM41.0342 51.477C41.3027 50.5374 41.6189 49.5708 41.9795 48.5874C42.2946 49.1976 42.6183 49.7976 42.9466 50.3802C43.2738 50.961 43.6171 51.5442 43.973 52.125C42.9535 51.9432 41.9703 51.7266 41.0342 51.477ZM43.0725 63.6018C42.5413 63.6018 42.0744 63.4848 41.6851 63.2544C41.0008 62.8488 40.5057 62.0682 40.2148 60.933C39.737 59.226 39.791 56.9778 40.3401 54.3732C42.1663 54.8616 44.1305 55.23 46.1908 55.4688C47.3839 57.1284 48.6322 58.6566 49.9099 60.0216C47.3138 62.3358 44.9005 63.6024 43.0725 63.6018ZM57.8063 55.47C59.8671 55.2306 61.8319 54.8628 63.6587 54.3744C64.2941 57.2184 64.3441 59.4852 63.7835 60.9336C63.4931 62.067 62.9992 62.8464 62.3161 63.2502C61.9262 63.4806 61.4593 63.5976 60.9286 63.5976C59.1001 63.5976 56.6863 62.3316 54.0907 60.021C55.3672 58.6572 56.6144 57.1296 57.8063 55.47ZM52 57.972C51.356 57.2832 50.7154 56.5446 50.0852 55.764C50.7292 55.788 51.3698 55.8 52 55.8C52.6296 55.8 53.2696 55.788 53.913 55.764C53.2834 56.5446 52.6434 57.2832 52 57.972Z" fill="#55C3C3"/>
<ellipse cx="83" cy="44" rx="28" ry="29" fill="white"/>
<path d="M83.007 65.419C82.433 65.419 81.864 65.269 81.361 64.979L76.121 61.876C75.338 61.438 75.72 61.283 75.978 61.194C77.022 60.829 77.233 60.746 78.347 60.113C78.464 60.046 78.617 60.07 78.737 60.141L82.763 62.53C82.908 62.609 83.115 62.609 83.249 62.53L98.946 53.469C99.091 53.386 99.186 53.218 99.186 53.045V34.932C99.186 34.751 99.092 34.59 98.943 34.5L83.253 25.446C83.108 25.36 82.915 25.36 82.77 25.446L67.082 34.499C66.93 34.585 66.833 34.754 66.833 34.927V53.041C66.833 53.214 66.927 53.379 67.077 53.461L71.376 55.944C73.71 57.111 75.136 55.736 75.136 54.353V36.476C75.136 36.221 75.336 36.024 75.592 36.024H77.58C77.828 36.024 78.032 36.22 78.032 36.476V54.362C78.032 57.474 76.335 59.262 73.384 59.262C72.476 59.262 71.761 59.262 69.765 58.28L65.647 55.907C64.629 55.317 64 54.216 64 53.042V34.928C64 33.749 64.629 32.649 65.646 32.067L81.36 23.002C82.354 22.44 83.674 22.44 84.661 23.002L100.355 32.071C101.367 32.656 102 33.753 102 34.932V53.046C102 54.221 101.367 55.317 100.354 55.907L84.66 64.971C84.157 65.262 83.587 65.411 83.006 65.411" fill="#21A366"/>
<path d="M87.8561 52.937C80.9881 52.937 79.5481 49.784 79.5481 47.14C79.5481 46.889 79.7511 46.688 80.0031 46.688H82.0311C82.2551 46.688 82.4441 46.851 82.4791 47.072C82.7851 49.138 83.6971 50.18 87.8501 50.18C91.1581 50.18 92.5651 49.433 92.5651 47.678C92.5651 46.668 92.1641 45.918 87.0251 45.415C82.7261 44.991 80.0701 44.044 80.0701 40.606C80.0701 37.439 82.7421 35.553 87.2171 35.553C92.2431 35.553 94.7341 37.298 95.0481 41.046C95.0601 41.176 95.0131 41.301 94.9261 41.396C94.8401 41.486 94.7181 41.541 94.5921 41.541H92.5531C92.3411 41.541 92.1561 41.392 92.1131 41.187C91.6221 39.014 90.4351 38.319 87.2091 38.319C83.5981 38.319 83.1781 39.576 83.1781 40.519C83.1781 41.662 83.6731 41.996 88.5451 42.641C93.3701 43.281 95.6611 44.185 95.6611 47.576C95.6611 50.994 92.8081 52.955 87.8341 52.955" fill="#21A366"/>
<ellipse cx="118" cy="45" rx="28" ry="29" fill="white"/>
<path d="M136 27H100V63H136V27Z" fill="#1976D2"/>
<path d="M121.49 43H108.227V46.264H112.984V61H116.753V46.264H121.49V43Z" fill="white"/>
<path d="M133.194 47.084C133.194 47.084 131.407 45.892 129.387 45.892C127.367 45.892 126.64 46.852 126.64 47.878C126.64 50.526 134.021 50.261 134.021 55.59C134.021 63.799 122.767 60.158 122.767 60.158V56.22C122.767 56.22 124.919 57.842 127.5 57.842C130.081 57.842 129.983 56.154 129.983 55.922C129.983 53.473 122.668 53.473 122.668 48.044C122.668 40.663 133.326 43.575 133.326 43.575L133.194 47.084Z" fill="white"/>
<ellipse cx="154" cy="47" rx="28" ry="29" fill="white"/>
<path d="M154 66.734C164.899 66.734 173.734 57.8988 173.734 47C173.734 36.1012 164.899 27.266 154 27.266C143.101 27.266 134.266 36.1012 134.266 47C134.266 57.8988 143.101 66.734 154 66.734Z" fill="url(#paint2_linear_32_5)"/>
<path d="M149.015 39.027H145.992V55.023H149.015V39.027Z" fill="white"/>
<path d="M161.988 38.957H159.035V53.547H161.988V38.957Z" fill="url(#paint3_linear_32_5)"/>
<path d="M166.781 61.094L164.168 62.09L145.992 39.027H149.508L166.781 61.094Z" fill="url(#paint4_linear_32_5)"/>
<defs>
<linearGradient id="paint0_linear_32_5" x1="0" y1="45.5" x2="201" y2="45.5" gradientUnits="userSpaceOnUse">
<stop stop-color="#C0E9EE"/>
<stop offset="0.244" stop-color="white" stop-opacity="0.91"/>
<stop offset="1" stop-color="#657DFF"/>
</linearGradient>
<linearGradient id="paint1_linear_32_5" x1="100.5" y1="0" x2="100.5" y2="91" gradientUnits="userSpaceOnUse">
<stop stop-color="#AAF2F9"/>
<stop offset="0.455" stop-color="#2DD4D4" stop-opacity="0"/>
<stop offset="1" stop-color="#B0F8FF"/>
</linearGradient>
<linearGradient id="paint2_linear_32_5" x1="154" y1="66.734" x2="154" y2="27.266" gradientUnits="userSpaceOnUse">
<stop stop-color="#0A070A"/>
<stop offset="0.465" stop-color="#2B2B2B"/>
<stop offset="1" stop-color="#4B4B4B"/>
</linearGradient>
<linearGradient id="paint3_linear_32_5" x1="160.512" y1="56.021" x2="160.512" y2="41.431" gradientUnits="userSpaceOnUse">
<stop offset="0.377" stop-color="white" stop-opacity="0"/>
<stop offset="0.666" stop-color="white" stop-opacity="0.3"/>
<stop offset="0.988" stop-color="white"/>
</linearGradient>
<linearGradient id="paint4_linear_32_5" x1="152.102" y1="44.443" x2="166.661" y2="63.529" gradientUnits="userSpaceOnUse">
<stop offset="0.296" stop-color="white"/>
<stop offset="0.521" stop-color="white" stop-opacity="0.5"/>
<stop offset="0.838" stop-color="white" stop-opacity="0"/>
</linearGradient>
</defs>
</svg>
